<?xml version="1.0" encoding="utf-8"?>
<!-- Generator: Adobe Illustrator 28.3.0, SVG Export Plug-In . SVG Version: 6.00 Build 0)  -->
<svg version="1.1" id="Layer_1" xmlns="http://www.w3.org/2000/svg" xmlns:xlink="http://www.w3.org/1999/xlink" x="0px" y="0px"
	 viewBox="0 0 100 104" style="enable-background:new 0 0 100 104;" xml:space="preserve">
<style type="text/css">
	.st0{fill:#067BC0;}
	.st1{fill:#088FDD;}
</style>
<path class="st0" d="M15.9,94.3c3,3.1,6.5,5.9,10.6,7.6c3.6,1.5,7.5,1.9,11.2,0.5c4.4-1.7,7.5-5.7,9.6-9.7c1.5-2.9,2.7-5.9,4.1-8.9
	c1.5-3.1,3.2-6.2,5.3-9c2-2.7,4.5-5.1,7.5-6.5c3-1.4,6.3-1.7,9.6-1.2c2.6,0.5,5.2,1.4,7.8,1.7c2.4,0.2,4.7-0.3,6.9-1.2
	c0.7-0.2,1.4-0.5,2.1-0.8c2.4-1.3,4.3-3.6,5.7-6c3-5.2,4.2-11.3,3.8-17.3c-1-14.1-9.6-26.6-21.1-34.3C68.5,2.1,55.7-1.3,43.3,0.4
	c-6.2,0.9-12.2,3.1-17.4,6.7c-5.1,3.5-9.6,7.9-13.4,12.7c-7.2,9-11.6,20.1-12.3,31.6c-0.7,10.8,1.7,21.9,7.1,31.3
	C9.6,86.9,12.5,90.9,15.9,94.3z"/>
<g>
	<path class="st1" d="M39.2,82.7c-2.2,0.1-4.5,0.3-6.7,0.5c-2.3,0.2-4.5,0.6-6.8,0.8c-2.2,0.3-4.3,0.5-6.5,0.6
		c-2.1,0.1-4.2,0.1-6.3,0c-1.5,0-3,0-4.5,0.2c0.2,0.3,0.3,0.5,0.5,0.8c1.1-0.1,2.2-0.2,3.2-0.2c1,0,2,0.1,3,0.1c1.1,0,2.1,0,3.2,0
		c2.1-0.1,4.2-0.3,6.3-0.5c2.2-0.2,4.5-0.6,6.7-0.8c2.2-0.3,4.4-0.4,6.7-0.6c4.5-0.3,8.9-0.3,13.4-0.3c0.1,0,0.2,0,0.3,0
		c0.1-0.3,0.3-0.6,0.4-0.8C47.7,82.4,43.5,82.5,39.2,82.7z"/>
	<path class="st1" d="M49.9,70.4c-1.8,0-3.4-0.4-5.1-0.8c-1.6-0.4-3.2-0.9-4.8-1.1c-1.5-0.2-3-0.2-4.4,0.2C34.2,69,33,69.5,31.8,70
		c-1.2,0.5-2.5,0.9-3.8,1.1c-1.6,0.1-3.2,0.1-4.8,0.1c-1.7,0-3.3,0.1-5,0.1c-0.8,0-1.6,0-2.3-0.1c-0.7-0.1-1.4-0.3-2.1-0.5
		c-1.3-0.5-2.6-1.1-3.9-1.6c-1.3-0.5-2.7-0.9-4.1-0.9c-1.2-0.1-2.5,0.1-3.6,0.4c-0.2,0-0.3,0.1-0.5,0.1c0.1,0.3,0.1,0.6,0.2,0.8
		c0.4-0.1,0.8-0.2,1.3-0.3c1.2-0.2,2.5-0.3,3.7-0.1c1.4,0.2,2.7,0.7,3.9,1.3c1.3,0.6,2.5,1.1,3.9,1.5c1.5,0.4,2.9,0.3,4.4,0.3
		c1.6,0,3.3,0,4.9-0.1c1.5,0,3.1,0,4.6-0.2c2.6-0.4,4.8-1.8,7.4-2.4c3.1-0.7,6.2,0.4,9.2,1.2c1.6,0.4,3.2,0.6,4.9,0.7
		c1.8,0,3.7-0.1,5.5-0.2C57,71,58.5,71,60,71c0.3-0.3,0.6-0.6,1-0.8c-0.2,0-0.4,0-0.7,0C56.8,70,53.4,70.5,49.9,70.4z"/>
	<path class="st1" d="M7.3,44.5c1.6-0.6,3.1-1.5,4.7-2.1c1.8-0.8,3.7-1.2,5.7-1.2c4.2-0.1,8.4,1,12.5,1.8c2,0.4,4,0.8,6.1,1
		c1.1,0.1,2.1,0.2,3.2,0.1c0.9,0,1.8,0,2.6-0.4c1.5-0.6,2.6-1.9,4.3-1.7c1.7,0.2,2.9,1.6,4.1,2.6c1.4,1.2,2.8,1.9,4.7,2
		c2,0.2,4-0.3,5.9-0.6c1.1-0.2,2.1-0.4,3.2-0.4c1.2,0,2.3,0.1,3.5,0.1c2.2,0.1,4.4,0,6.6-0.2c4.4-0.4,8.8-1.3,13.1-2
		c4.1-0.7,8.1-1.8,12.1-2.8c0-0.3-0.1-0.6-0.1-0.8c-2.9,0.7-5.7,1.5-8.6,2.1c-4.4,1-8.9,1.7-13.3,2.3c-2.1,0.3-4.2,0.5-6.3,0.6
		c-1.1,0-2.3,0.1-3.4,0c-1.2,0-2.3-0.2-3.5-0.1c-3.9,0.1-8.4,2.4-12,0.2c-1.4-0.9-2.5-2.2-3.9-3.1c-1.3-0.8-2.9-1.1-4.3-0.4
		c-0.7,0.3-1.3,0.8-1.9,1.1c-0.8,0.4-1.7,0.5-2.6,0.5c-2.1,0.1-4.2-0.2-6.3-0.5c-4.1-0.7-8.2-1.8-12.4-2.3c-2-0.2-4-0.2-6,0.1
		c-1.8,0.3-3.4,1-5,1.8c-1.6,0.8-3.2,1.6-5,1.8c-1.3,0.2-2.6,0-3.9-0.2C1,44.2,1,44.5,0.9,44.8C3.1,45.2,5.2,45.3,7.3,44.5z"/>
	<path class="st1" d="M22.9,20.7c2-0.9,3.5-2.6,5.7-3c2.6-0.5,5.3,0.5,7.9,0.2c1.5-0.2,2.8-0.7,4.1-1.2c1.6-0.6,3.3-1.1,5.1-1.3
		c3.2-0.5,6.4-0.4,9.6-0.5c1.7-0.1,3.5-0.3,5.2-0.6c1.9-0.3,3.8-0.5,5.6-0.6c3.8-0.2,7.6,0,11.4,0.1c2.4,0,4.8,0.1,7.3-0.1
		c-0.3-0.3-0.6-0.5-0.9-0.8c-1.1,0.1-2.1,0.1-3.2,0.1c-3.8,0-7.5-0.2-11.3-0.2c-1.9,0-3.8,0.1-5.7,0.2c-1.8,0.2-3.6,0.5-5.5,0.7
		c-3.3,0.4-6.6,0.2-9.9,0.5c-1.6,0.1-3.2,0.3-4.8,0.7c-1.7,0.4-3.3,1.1-5,1.7c-1.2,0.4-2.3,0.6-3.6,0.5c-1.3-0.1-2.6-0.2-3.9-0.3
		c-1.4-0.1-2.8,0-4.1,0.5c-1,0.4-1.8,1-2.7,1.6c-1,0.7-2.1,1.3-3.3,1.5c-1.4,0.3-2.9,0.2-4.3-0.1c-1.3-0.3-2.5-0.7-3.8-1.1
		c-0.2,0.2-0.3,0.4-0.5,0.6c0,0,0,0.1-0.1,0.1c0.8,0.3,1.5,0.5,2.3,0.8C17.4,21.5,20.2,22,22.9,20.7z"/>
	<path class="st1" d="M5.5,56.8c1.5-0.6,3-0.7,4.6-0.4c2.2,0.4,4.3,1.1,6.4,1.7c2.2,0.7,4.4,1.3,6.7,1.4c2.3,0.1,4.4-0.3,6.5-1.1
		c2-0.8,3.8-1.7,5.9-2.3c2.2-0.6,4.4-0.6,6.5-0.1c4,1,7.6,3.5,11.8,4c2.4,0.3,4.8-0.1,7.2-0.4c1.2-0.2,2.4-0.3,3.6-0.2
		c1.2,0.1,2.1,0.4,3.2,0.8c0.9,0.4,1.8,0.8,2.7,0.8c0.9,0,1.7-0.4,2.4-0.8c1.6-1,2.7-2.5,4.6-2.9c4.3-1,8.9,1.7,13.1-0.3
		c0.7-0.4,1.3-0.8,2-1.3c0.9-0.6,1.9-1,3-1c1-0.1,2,0,3,0c0.1-0.3,0.2-0.6,0.2-0.9c-0.2,0-0.4,0-0.6,0c-1.2,0-2.3-0.1-3.5,0.1
		c-1,0.2-1.9,0.6-2.7,1.1c-0.6,0.4-1.2,0.9-1.9,1.2c-1,0.5-2.1,0.7-3.2,0.7c-2.3,0.1-4.5-0.5-6.8-0.6c-2.1-0.1-4,0.3-5.6,1.6
		c-1.4,1.1-2.9,2.7-4.8,2.3c-1-0.2-1.9-0.7-2.9-1.1c-1-0.4-2-0.4-3.1-0.4c-2.4,0-4.8,0.6-7.3,0.7c-2.3,0.1-4.4-0.3-6.5-1.1
		c-2-0.7-3.8-1.7-5.8-2.4c-1.9-0.7-4-1.2-6-1.1c-2.1,0.1-4.2,0.9-6.1,1.7c-2,0.8-3.9,1.7-6,2.1c-2.4,0.4-4.7,0.1-7-0.5
		c-2.3-0.6-4.5-1.4-6.7-1.9c-1.6-0.4-3.4-0.9-5.1-0.6c-1.8,0.2-3.5,1-5.1,1.9c-0.8,0.4-1.5,0.9-2.2,1.4c0,0.3,0.1,0.7,0.1,1
		c0.8-0.5,1.5-1,2.2-1.5C3.4,57.6,4.5,57.2,5.5,56.8z"/>
	<path class="st1" d="M15.9,30.9c1.5-0.1,3,0,4.5,0.5c1.7,0.5,3.4,1.3,5.2,1.7c1.5,0.3,3.3,0.3,4.7-0.5c1.4-0.8,2.4-2.2,4.1-2.5
		c2-0.4,4.1,0.5,6.1,0.5c2.2,0,4.3-0.3,6.4-0.6c2-0.3,4.1-0.7,6.2-0.6c2.1,0.1,4.1,0.5,6.2,0.7c2.1,0.1,4.1-0.2,6.1-0.6
		c2.1-0.4,4.1-1,6.2-1.5c4.2-1,8.5-1.9,12.8-1.3c3.8,0.5,7.7,1.3,11.6,1.8c-0.2-0.3-0.3-0.6-0.5-0.9c-3.1-0.4-6.1-0.9-9.2-1.4
		c-1.9-0.3-3.9-0.5-5.8-0.4c-2.1,0.1-4.1,0.4-6.2,0.8c-2.1,0.4-4.2,1-6.3,1.5c-2.1,0.5-4.2,1.1-6.3,1.3c-2.1,0.2-4.2-0.2-6.3-0.4
		c-2.1-0.3-4-0.3-6.1,0c-2.1,0.3-4.2,0.7-6.3,0.8c-1.1,0.1-2.1,0.2-3.2,0.1c-1.1-0.1-2.1-0.3-3.2-0.4c-0.9-0.1-1.9-0.2-2.8,0.1
		c-0.8,0.2-1.5,0.6-2.1,1.1c-0.6,0.5-1.2,1-1.9,1.4c-0.7,0.5-1.5,0.6-2.4,0.6c-1.8,0-3.5-0.7-5.2-1.3c-1.6-0.6-3.2-1-4.8-1.1
		c-3-0.1-6.1,0.7-9,1.6c-1.3,0.4-2.6,0.9-3.9,1.5c-0.2,0.4-0.3,0.7-0.5,1.1c0.9-0.4,1.7-0.7,2.6-1.1C9.6,32.1,12.7,31.1,15.9,30.9z"
		/>
	<path class="st1" d="M27.9,8.7c1.5-0.4,2.9-0.9,4.3-1.4c1.8-0.6,3.6-1,5.4-1.2c3.8-0.5,7.6-0.2,11.4-0.5c1.9-0.1,3.8-0.4,5.6-1
		c0.6-0.2,1.2-0.3,1.8-0.5c3-0.7,6.1-1.2,9.2-1.6c-0.6-0.2-1.3-0.4-1.9-0.6c-2,0.3-4.1,0.7-6.1,1.1c-1.7,0.4-3.4,0.9-5.2,1.3
		C48.6,5,44.8,4.8,41,5c-1.9,0.1-3.9,0.3-5.8,0.6c-1.7,0.4-3.4,0.9-5,1.5c-2,0.7-4,1.4-6,1.3c-0.3,0.2-0.7,0.5-1,0.7
		c0.2,0,0.4,0.1,0.7,0.1C25.2,9.3,26.6,9.1,27.9,8.7z"/>
	<path class="st1" d="M39.8,93.2c-2.3-0.2-4.6-0.5-6.9-0.3c-1.1,0.1-2.2,0.2-3.3,0.5c-1,0.3-2,0.7-3,1c-1,0.3-2,0.6-3,0.6
		c-1.1,0.1-2.1-0.1-3.1-0.4c-1.9-0.6-3.8-1.4-5.8-1.6c0.3,0.3,0.6,0.7,1,1c1.3,0.3,2.6,0.8,3.9,1.2c1,0.3,1.9,0.6,2.9,0.7
		c1,0.1,2.1,0,3.1-0.3c2-0.5,3.9-1.4,6-1.7c2.3-0.3,4.5-0.2,6.8,0.1c2.2,0.2,4.5,0.5,6.7,0.3c0.5,0,1-0.1,1.5-0.2
		c0.2-0.3,0.4-0.6,0.5-0.9c-0.2,0-0.4,0.1-0.7,0.1C44.2,93.6,41.9,93.4,39.8,93.2z"/>
</g>
</svg>
