<svg width="41" height="40" viewBox="0 0 41 40" fill="none" xmlns="http://www.w3.org/2000/svg">
<g clip-path="url(#clip0_1_378)">
<path d="M3.50538 15.2206C4.69098 10.9997 7.38996 7.38889 11.1052 5.05369C14.546 2.89091 18.4938 1.99491 22.5221 2.46244C25.4423 2.80118 28.2368 3.87144 30.6236 5.53678L28.7748 5.60056L28.8554 7.94248L34.943 7.73313L34.723 1.72056L32.3808 1.80631L32.4604 3.97336C29.6519 1.88322 26.302 0.541969 22.7922 0.13456C20.579 -0.122093 18.3583 -0.0103986 16.1918 0.467201C13.9497 0.961586 11.8187 1.83714 9.85791 3.06943C5.64924 5.7147 2.59199 9.80527 1.24921 14.5871C-0.0840992 19.3344 0.372749 24.3768 2.53522 28.7854L4.63941 27.7533C2.73115 23.8632 2.32831 19.4122 3.50538 15.2206V15.2206Z" fill="#067bc0"/>
<path d="M37.9062 10.1589L35.867 11.3137C38.1058 15.2679 38.728 19.8791 37.6193 24.2977C36.5069 28.7301 33.7628 32.5109 29.8923 34.9438C26.3187 37.1899 22.056 38.0801 17.89 37.4505C14.6484 36.9607 11.6208 35.581 9.14398 33.4969L11.3284 33.4216L11.2479 31.0793L5.15991 31.289L5.38025 37.3016L7.72217 37.2155L7.65198 35.3042C10.4544 37.6568 13.8773 39.2141 17.54 39.7677C18.529 39.9172 19.523 39.9911 20.5136 39.9911C24.2505 39.9911 27.9391 38.9394 31.1395 36.9277C35.524 34.172 38.6322 29.8892 39.8923 24.8681C41.1484 19.8632 40.4431 14.6392 37.9062 10.1589V10.1589Z" fill="#067bc0"/>
<path d="M32.9277 22.8031V16.6443L30.5534 16.1835C30.4268 15.8243 30.2806 15.4718 30.1158 15.1282L31.4714 13.1235L27.1211 8.76437L25.1139 10.116C24.7639 9.94723 24.405 9.798 24.0388 9.66891L23.578 7.29465H17.4192L16.9584 9.66891C16.5992 9.79556 16.2468 9.94174 15.9031 10.1065L13.8984 8.75095L9.53931 13.1012L10.8909 15.1084C10.7222 15.4584 10.5729 15.8173 10.4438 16.1832L8.06958 16.6443V22.8031L10.4438 23.2639C10.5705 23.6231 10.7167 23.9752 10.8815 24.3192L9.52588 26.3236L13.8762 30.683L15.8836 29.3314C16.2333 29.5001 16.5922 29.6494 16.9584 29.7785L17.4192 32.1527H23.578L24.0388 29.7785C24.398 29.6518 24.7505 29.5056 25.0944 29.3408L27.0988 30.6964L31.4582 26.3462L30.1066 24.339C30.2751 23.989 30.4246 23.6301 30.5537 23.2639L32.9277 22.8031ZM28.7092 21.2348L28.516 21.9348C28.3336 22.5965 28.0677 23.2352 27.7266 23.8327L27.3658 24.4647L28.4349 26.0523L26.811 27.6728L25.2256 26.6004L24.5927 26.9599C23.9994 27.2971 23.3659 27.5601 22.7098 27.7414L22.0097 27.9346L21.6456 29.8093H19.3516L18.9879 27.9346L18.2878 27.7414C17.6255 27.5586 16.9871 27.2928 16.3899 26.9516L15.7579 26.5909L14.1703 27.6599L12.5499 26.0361L13.6219 24.4507L13.2624 23.8181C12.9252 23.2245 12.6625 22.591 12.4812 21.9348L12.288 21.2348L10.4133 20.8707V18.5767L12.288 18.2129L12.4812 17.5128C12.664 16.8509 12.9298 16.2125 13.2707 15.615L13.6317 14.9829L12.5627 13.3954L14.1865 11.7749L15.7719 12.8473L16.4045 12.4875C16.9978 12.1503 17.6317 11.8875 18.2878 11.7063L18.9879 11.5131L19.3516 9.6384H21.6456L22.0097 11.5131L22.7098 11.7063C23.3717 11.8891 24.0104 12.1549 24.6077 12.4958L25.2397 12.8568L26.8272 11.7877L28.4477 13.4113L27.3753 14.997L27.7348 15.6296C28.072 16.2229 28.3348 16.8564 28.516 17.5128L28.7095 18.2129L30.5842 18.5767V20.8707L28.7092 21.2348Z" fill="#067bc0"/>
<path d="M20.5962 13.6289C17.2353 13.6289 14.5012 16.363 14.5012 19.7239C14.5012 23.0845 17.2353 25.8185 20.5962 25.8185C23.9568 25.8185 26.6909 23.0845 26.6909 19.7239C26.6909 16.363 23.9568 13.6289 20.5962 13.6289V13.6289ZM20.5962 23.4751C18.5277 23.4751 16.8447 21.7921 16.8447 19.7236C16.8447 17.6551 18.5277 15.9724 20.5962 15.9724C22.6647 15.9724 24.3474 17.6551 24.3474 19.7236C24.3474 21.7921 22.6647 23.4751 20.5962 23.4751Z" fill="#067bc0"/>
</g>
<defs>
<clipPath id="clip0_1_378">
<rect width="40" height="40" fill="white" transform="translate(0.5)"/>
</clipPath>
</defs>
</svg>
