<?xml version="1.0" encoding="utf-8"?>
<!-- Generator: Adobe Illustrator 28.3.0, SVG Export Plug-In . SVG Version: 6.00 Build 0)  -->
<svg version="1.1" id="Layer_1" xmlns="http://www.w3.org/2000/svg" xmlns:xlink="http://www.w3.org/1999/xlink" x="0px" y="0px"
	 viewBox="0 0 418.7 841.9" style="enable-background:new 0 0 418.7 841.9;" xml:space="preserve">
<style type="text/css">
	.st0{fill:#FFFFFF;}
	.st1{fill:url(#SVGID_1_);}
	.st2{opacity:0.43;fill:#FFFFFF;}
	.st3{fill:none;stroke:#FFFFFF;stroke-miterlimit:10;}
	.st4{fill:none;stroke:#FFFFFF;stroke-width:0.75;stroke-linecap:round;stroke-linejoin:round;stroke-dasharray:0,2.9983;}
	.st5{fill:url(#SVGID_00000001637213848814156580000001218815656308474285_);}
	.st6{fill:url(#SVGID_00000130636949174526569660000005954866748577775798_);}
	.st7{fill:url(#SVGID_00000093857314153149409560000006795126934476753846_);}
	.st8{fill:url(#SVGID_00000065755008557415344370000005289299137976047804_);}
	.st9{fill:url(#SVGID_00000119102311094353787940000015199417279369101701_);}
	.st10{fill:url(#SVGID_00000032627178006278817190000002578061111252210084_);}
	.st11{fill:url(#SVGID_00000152981070448928456620000017114402046946355844_);}
	.st12{fill:url(#SVGID_00000183214319923634365340000010583651309668562573_);}
	.st13{fill:url(#SVGID_00000128444258076687990780000010713667642227777156_);}
	.st14{fill:url(#SVGID_00000097498835157362372960000011419813181432843426_);}
	.st15{fill:url(#SVGID_00000023259342950119553830000016767874076111822513_);}
</style>
<g>
	<g>
		<path class="st0" d="M0,831.7V10.2C0,4.5,4.5,0,10.2,0h399.6c5.6,0,10.1,4.5,10.1,10.1v821.6c0,5.6-4.5,10.1-10.1,10.1H10.2
			C4.5,841.9,0,837.3,0,831.7z"/>
		<linearGradient id="SVGID_1_" gradientUnits="userSpaceOnUse" x1="1.0806" y1="66.6995" x2="382.134" y2="712.9652">
			<stop  offset="0" style="stop-color:#283279"/>
			<stop  offset="1" style="stop-color:#121321"/>
		</linearGradient>
		<path class="st1" d="M373.2,16.4h-90.1c-1.8,0-3.4,1.1-4.2,2.7c0,0,0,0,0,0l-3.3,6.3c-1.5,2.9-4.5,4.7-7.8,4.7h-64.6h13.5h-61.8
			c-5,0-9.6-2.8-11.9-7.2l-2-3.8c0,0,0,0,0,0c-0.8-1.6-2.4-2.7-4.2-2.7H46.7C30,16.4,16.4,30,16.4,46.7v748.5
			c0,16.7,13.6,30.3,30.3,30.3h326.5c16.7,0,30.3-13.6,30.3-30.3V46.7C403.5,30,389.9,16.4,373.2,16.4z"/>
	</g>
	<g>
		<g>
			<circle class="st2" cx="215.1" cy="373.9" r="142.7"/>
			
				<ellipse transform="matrix(0.7071 -0.7071 0.7071 0.7071 -201.4255 261.5929)" class="st3" cx="215.1" cy="373.9" rx="98.1" ry="98.1"/>
			
				<ellipse transform="matrix(0.7071 -0.7071 0.7071 0.7071 -201.4255 261.5929)" class="st3" cx="215.1" cy="373.9" rx="65.5" ry="65.5"/>
			
				<ellipse transform="matrix(0.7071 -0.7071 0.7071 0.7071 -201.4255 261.5929)" class="st0" cx="215.1" cy="373.9" rx="39.4" ry="39.4"/>
			<g>
				<circle class="st4" cx="215.1" cy="373.9" r="120.7"/>
			</g>
			<path class="st0" d="M306.6,392.2c-8.5,42.8-46.2,75.1-91.6,75.1c-45.3,0-83.1-32.3-91.6-75.1h-10.9
				c8.6,48.8,51.2,85.8,102.5,85.8s93.8-37.1,102.5-85.8H306.6z"/>
			<path class="st0" d="M188.2,324.6v-23c-26.7,9.9-46.4,34.1-49.8,63.3h25.2c2.7-15.3,12.1-28.4,25-36
				C188.3,327.5,188.2,326.1,188.2,324.6z"/>
			<path class="st0" d="M228,297.8v25.5c19.7,5,34.9,21.3,38.5,41.5h25.2C287.8,330.7,261.6,303.5,228,297.8z"/>
		</g>
		<g>
			<g>
				<g>
					
						<linearGradient id="SVGID_00000106141977781561811750000003760194251051217597_" gradientUnits="userSpaceOnUse" x1="369.3772" y1="-67.423" x2="266.48" y2="196.1196" gradientTransform="matrix(0.8878 -0.4602 0.2794 0.539 -93.943 510.5513)">
						<stop  offset="0" style="stop-color:#010101"/>
						<stop  offset="1" style="stop-color:#0AB3C4"/>
					</linearGradient>
					<path style="fill:url(#SVGID_00000106141977781561811750000003760194251051217597_);" d="M299.3,278.6
						c72.8-10.3,91.4,24.6,41.4,78C290.6,410,190.6,461.8,117.7,472.1c-72.9,10.4-91.4-24.6-41.4-78
						C126.4,340.8,226.4,288.9,299.3,278.6z M118.9,470.9c71.9-10.2,170.7-61.4,220.1-114.1c49.4-52.7,31.1-87.2-40.8-77
						C226.2,290,127.4,341.2,78,393.9C28.6,446.6,46.9,481.1,118.9,470.9"/>
				</g>
				<g>
					
						<linearGradient id="SVGID_00000124148037896078701750000005791147170006383764_" gradientUnits="userSpaceOnUse" x1="369.3772" y1="-67.423" x2="266.48" y2="196.1196" gradientTransform="matrix(0.8878 -0.4602 0.2794 0.539 -93.943 510.5513)">
						<stop  offset="0" style="stop-color:#010101"/>
						<stop  offset="1" style="stop-color:#0AB3C4"/>
					</linearGradient>
					<path style="fill:url(#SVGID_00000124148037896078701750000005791147170006383764_);" d="M299.3,278.6
						c72.8-10.3,91.4,24.6,41.4,78C290.6,410,190.6,461.8,117.7,472.1c-72.9,10.4-91.4-24.6-41.4-78
						C126.4,340.8,226.4,288.9,299.3,278.6z M118.9,470.9c71.9-10.2,170.7-61.4,220.1-114.1c49.4-52.7,31.1-87.2-40.8-77
						C226.2,290,127.4,341.2,78,393.9C28.6,446.6,46.9,481.1,118.9,470.9"/>
				</g>
			</g>
		</g>
		<g>
			
				<radialGradient id="SVGID_00000133500513946480747190000012655818610175578241_" cx="362.1478" cy="464.7053" r="35.5599" gradientTransform="matrix(-1 0 0 -1 680.2695 839)" gradientUnits="userSpaceOnUse">
				<stop  offset="0" style="stop-color:#FFFFFF"/>
				<stop  offset="0.1285" style="stop-color:#BEBBBB"/>
				<stop  offset="0.3639" style="stop-color:#706D6D"/>
				<stop  offset="0.5773" style="stop-color:#413F3E"/>
				<stop  offset="0.761" style="stop-color:#232222"/>
				<stop  offset="0.9081" style="stop-color:#0C0C0C"/>
				<stop  offset="1" style="stop-color:#010101"/>
			</radialGradient>
			<circle style="fill:url(#SVGID_00000133500513946480747190000012655818610175578241_);" cx="318.1" cy="374.3" r="35.6"/>
			
				<radialGradient id="SVGID_00000044137737909553297760000006050939278765569960_" cx="375.6887" cy="425.9128" r="13.5555" gradientTransform="matrix(-1 0 0 -1 680.2695 839)" gradientUnits="userSpaceOnUse">
				<stop  offset="0" style="stop-color:#FFFFFF"/>
				<stop  offset="0.1285" style="stop-color:#BEBBBB"/>
				<stop  offset="0.3639" style="stop-color:#706D6D"/>
				<stop  offset="0.5773" style="stop-color:#413F3E"/>
				<stop  offset="0.761" style="stop-color:#232222"/>
				<stop  offset="0.9081" style="stop-color:#0C0C0C"/>
				<stop  offset="1" style="stop-color:#010101"/>
			</radialGradient>
			<path style="fill:url(#SVGID_00000044137737909553297760000006050939278765569960_);" d="M291,413.1c0-7.5,6.1-13.6,13.6-13.6
				c7.5,0,13.6,6.1,13.6,13.6c0,7.5-6.1,13.6-13.6,13.6C297.1,426.6,291,420.6,291,413.1z"/>
			
				<radialGradient id="SVGID_00000125582020859089969860000002818670337992958877_" cx="585.1984" cy="531.9545" r="13.5555" gradientTransform="matrix(-1 0 0 -1 680.2695 839)" gradientUnits="userSpaceOnUse">
				<stop  offset="0" style="stop-color:#FFFFFF"/>
				<stop  offset="0.1285" style="stop-color:#BEBBBB"/>
				<stop  offset="0.3639" style="stop-color:#706D6D"/>
				<stop  offset="0.5773" style="stop-color:#413F3E"/>
				<stop  offset="0.761" style="stop-color:#232222"/>
				<stop  offset="0.9081" style="stop-color:#0C0C0C"/>
				<stop  offset="1" style="stop-color:#010101"/>
			</radialGradient>
			<path style="fill:url(#SVGID_00000125582020859089969860000002818670337992958877_);" d="M81.5,307c0-7.5,6.1-13.6,13.6-13.6
				c7.5,0,13.6,6.1,13.6,13.6s-6.1,13.6-13.6,13.6C87.6,320.6,81.5,314.5,81.5,307z"/>
			
				<radialGradient id="SVGID_00000071527989432111188380000007276469031325081532_" cx="567.1816" cy="424.3686" r="13.5556" gradientTransform="matrix(-1 0 0 -1 680.2695 839)" gradientUnits="userSpaceOnUse">
				<stop  offset="0" style="stop-color:#FFFFFF"/>
				<stop  offset="0.1285" style="stop-color:#BEBBBB"/>
				<stop  offset="0.3639" style="stop-color:#706D6D"/>
				<stop  offset="0.5773" style="stop-color:#413F3E"/>
				<stop  offset="0.761" style="stop-color:#232222"/>
				<stop  offset="0.9081" style="stop-color:#0C0C0C"/>
				<stop  offset="1" style="stop-color:#010101"/>
			</radialGradient>
			<circle style="fill:url(#SVGID_00000071527989432111188380000007276469031325081532_);" cx="113.1" cy="414.6" r="13.6"/>
			
				<radialGradient id="SVGID_00000083778674195588295050000003859377728012451486_" cx="348.406" cy="529.8956" r="13.5554" gradientTransform="matrix(-1 0 0 -1 680.2695 839)" gradientUnits="userSpaceOnUse">
				<stop  offset="0" style="stop-color:#FFFFFF"/>
				<stop  offset="0.1285" style="stop-color:#BEBBBB"/>
				<stop  offset="0.3639" style="stop-color:#706D6D"/>
				<stop  offset="0.5773" style="stop-color:#413F3E"/>
				<stop  offset="0.761" style="stop-color:#232222"/>
				<stop  offset="0.9081" style="stop-color:#0C0C0C"/>
				<stop  offset="1" style="stop-color:#010101"/>
			</radialGradient>
			<path style="fill:url(#SVGID_00000083778674195588295050000003859377728012451486_);" d="M318.3,309.1c0-7.5,6.1-13.6,13.6-13.6
				c7.5,0,13.6,6.1,13.6,13.6s-6.1,13.6-13.6,13.6C324.4,322.7,318.3,316.6,318.3,309.1z"/>
			
				<radialGradient id="SVGID_00000013891986962074381300000001550268324778710441_" cx="573.702" cy="475.3304" r="6.8636" gradientTransform="matrix(-1 0 0 -1 680.2695 839)" gradientUnits="userSpaceOnUse">
				<stop  offset="0" style="stop-color:#FFFFFF"/>
				<stop  offset="0.1285" style="stop-color:#BEBBBB"/>
				<stop  offset="0.3639" style="stop-color:#706D6D"/>
				<stop  offset="0.5773" style="stop-color:#413F3E"/>
				<stop  offset="0.761" style="stop-color:#232222"/>
				<stop  offset="0.9081" style="stop-color:#0C0C0C"/>
				<stop  offset="1" style="stop-color:#010101"/>
			</radialGradient>
			<path style="fill:url(#SVGID_00000013891986962074381300000001550268324778710441_);" d="M99.7,363.7c0-3.8,3.1-6.9,6.9-6.9
				c3.8,0,6.9,3.1,6.9,6.9s-3.1,6.9-6.9,6.9C102.8,370.5,99.7,367.5,99.7,363.7z"/>
			
				<radialGradient id="SVGID_00000117639022510053790230000007674942639484094354_" cx="372.4284" cy="505.7017" r="6.8635" gradientTransform="matrix(-1 0 0 -1 680.2695 839)" gradientUnits="userSpaceOnUse">
				<stop  offset="0" style="stop-color:#FFFFFF"/>
				<stop  offset="0.1285" style="stop-color:#BEBBBB"/>
				<stop  offset="0.3639" style="stop-color:#706D6D"/>
				<stop  offset="0.5773" style="stop-color:#413F3E"/>
				<stop  offset="0.761" style="stop-color:#232222"/>
				<stop  offset="0.9081" style="stop-color:#0C0C0C"/>
				<stop  offset="1" style="stop-color:#010101"/>
			</radialGradient>
			<circle style="fill:url(#SVGID_00000117639022510053790230000007674942639484094354_);" cx="307.8" cy="333.3" r="6.9"/>
			
				<radialGradient id="SVGID_00000139285631656505263920000013164074216467733647_" cx="572.1577" cy="615.8613" r="6.8636" gradientTransform="matrix(-1 0 0 -1 680.2695 839)" gradientUnits="userSpaceOnUse">
				<stop  offset="0" style="stop-color:#FFFFFF"/>
				<stop  offset="0.1285" style="stop-color:#BEBBBB"/>
				<stop  offset="0.3639" style="stop-color:#706D6D"/>
				<stop  offset="0.5773" style="stop-color:#413F3E"/>
				<stop  offset="0.761" style="stop-color:#232222"/>
				<stop  offset="0.9081" style="stop-color:#0C0C0C"/>
				<stop  offset="1" style="stop-color:#010101"/>
			</radialGradient>
			<path style="fill:url(#SVGID_00000139285631656505263920000013164074216467733647_);" d="M101.2,223.1c0-3.8,3.1-6.9,6.9-6.9
				c3.8,0,6.9,3.1,6.9,6.9c0,3.8-3.1,6.9-6.9,6.9C104.3,230,101.2,226.9,101.2,223.1z"/>
			
				<radialGradient id="SVGID_00000150808873826592964850000000219357446263060868_" cx="596.3516" cy="500.5539" r="6.8635" gradientTransform="matrix(-1 0 0 -1 680.2695 839)" gradientUnits="userSpaceOnUse">
				<stop  offset="0" style="stop-color:#FFFFFF"/>
				<stop  offset="0.1285" style="stop-color:#BEBBBB"/>
				<stop  offset="0.3639" style="stop-color:#706D6D"/>
				<stop  offset="0.5773" style="stop-color:#413F3E"/>
				<stop  offset="0.761" style="stop-color:#232222"/>
				<stop  offset="0.9081" style="stop-color:#0C0C0C"/>
				<stop  offset="1" style="stop-color:#010101"/>
			</radialGradient>
			<circle style="fill:url(#SVGID_00000150808873826592964850000000219357446263060868_);" cx="83.9" cy="338.4" r="6.9"/>
		</g>
	</g>
</g>
</svg>
