<?xml version="1.0" encoding="utf-8"?>
<!-- Generator: Adobe Illustrator 28.3.0, SVG Export Plug-In . SVG Version: 6.00 Build 0)  -->
<svg version="1.1" id="Layer_1" xmlns="http://www.w3.org/2000/svg" xmlns:xlink="http://www.w3.org/1999/xlink" x="0px" y="0px"
	 viewBox="0 0 1080 330" style="enable-background:new 0 0 1080 330;" xml:space="preserve">
<style type="text/css">
	.st0{fill:url(#SVGID_1_);}
	.st1{fill:url(#SVGID_00000140010149143752261690000004936486238613698457_);}
	.st2{fill:url(#SVGID_00000119798561072976356570000011891510671166788534_);}
	.st3{fill:url(#SVGID_00000114031414350127664380000009050413111244618899_);}
	.st4{fill:url(#SVGID_00000123411971567577914050000005080065332609400233_);}
	.st5{fill:url(#SVGID_00000028303700001011042730000012366543685753332873_);}
	.st6{fill:url(#SVGID_00000021833133853212672450000013921004064731857543_);}
	.st7{fill:url(#SVGID_00000049194958645849167840000005898732493535016382_);}
	.st8{fill:url(#SVGID_00000034794612714016959220000002202711902810320014_);}
	.st9{fill:url(#SVGID_00000002356466654780091960000012409135958167148722_);}
	.st10{fill:url(#SVGID_00000173853210222988041020000007958312599928465551_);}
	.st11{fill:url(#SVGID_00000000932646346986704520000015081159666785923465_);}
</style>
<g>
	<g>
		<g>
			<linearGradient id="SVGID_1_" gradientUnits="userSpaceOnUse" x1="12.5211" y1="246.1466" x2="288.4588" y2="48.4289">
				<stop  offset="0" style="stop-color:#067BC0"/>
				<stop  offset="1" style="stop-color:#61CAE4"/>
			</linearGradient>
			<path class="st0" d="M104.7,6.4c24.1,0,48.1-0.4,72.2,0.1c30.8,0.6,59.7,8.2,85.9,25c30.2,19.3,50.8,46,62,80
				c2.8,8.5,3.7,17.3,5.6,25.9c2.5,11.3,2.2,22.6,2.2,33.9c-0.1,18-3.5,35.5-9.8,52.4c-11.6,31-30.9,56.1-58.4,74.6
				c-21,14.1-44.3,22.2-69.3,25.4c-10.8,1.4-21.7,1.6-32.5,1.6c-29.8-0.1-59.5,0-89.3-0.1c-5,0-6.2-1.2-6.2-6.2
				c0-31.8-0.1-63.6,0-95.4c0-15.2,11.9-27,27.1-27c13.6,0,27.2-0.1,40.8,0.1c3.5,0,4.7-1,4.6-4.6c-0.2-12,0-23.9-0.1-35.9
				c0-2.9,0.8-3.6,3.6-3.6c11.3,0.1,22.6,0,33.8,0.1c5.3,0,5.9,0.7,5.9,5.8c0,12.1-0.1,24.2,0,36.3c0.1,4-1.6,5.2-5.3,5.1
				c-4.9-0.2-9.8,0-14.7-0.1c-3.6,0-7,0.9-9.9,3.1c-5.5,4.3-10.5,9.3-15.4,14.4c-3.6,3.7-7.4,7.1-11.1,10.7
				c-7.1,7-13.6,14.5-20.7,21.4c-4.2,4-7.8,8.6-12.1,12.6c-1.5,1.4-2.8,3-3.7,4.8c-2.2,4.5-0.4,7.4,4.4,7.4
				c27.9,0,55.7,0.5,83.6-0.4c12.2-0.4,24-4.5,35.3-9.7c26.7-12.4,46.5-31.6,57-59.3c10.5-27.9,10.8-56-1.1-83.7
				c-6.6-15.3-16.6-28.3-30-38.4c-5.7-4.3-11.9-8-18.2-11.6c-6.1-3.5-12.4-6.5-19.1-8.2c-3.8-1-7.6-1.9-11.5-2.6
				c-39.9-6.8-80.1-1.4-120.1-3.1c-5.9-0.2-9.5,3.4-9.9,9.5c-0.2,2.7-0.2,5.4-0.2,8.1c0,23.5,0,47,0,70.5c0,13.5-11.3,25-24.8,25.1
				c-8,0.1-16-0.2-24.1,0.1c-3.4,0.1-4.2-0.9-4.2-4.2c0.1-45.3,0.1-90.5,0.1-135.8c0-12.8,5.6-20,18-23.4c1.8-0.5,3.5-0.5,5.2-0.5
				C55.2,6.4,80,6.4,104.7,6.4z"/>
			
				<linearGradient id="SVGID_00000021805036079181779480000005507692010820119445_" gradientUnits="userSpaceOnUse" x1="87.4356" y1="140.201" x2="130.704" y2="105.9931">
				<stop  offset="0" style="stop-color:#067BC0"/>
				<stop  offset="1" style="stop-color:#61CAE4"/>
			</linearGradient>
			<path style="fill:url(#SVGID_00000021805036079181779480000005507692010820119445_);" d="M89.5,103.4c0.7-1.2,1.9-0.8,2.9-0.8
				c10.9,0,21.8,0,32.7,0c1.4,0,2.7,0.1,3.7,1c0,13,0,26,0,38.9c0,0,0,0.1,0,0.1c-0.2,0.2-0.4,0.4-0.6,0.6c-12.8,0-25.5,0-38.3,0
				c-0.1-1.5-0.3-3-0.3-4.5C89.6,127,89.5,115.2,89.5,103.4z"/>
		</g>
	</g>
	<g>
		<g>
			
				<linearGradient id="SVGID_00000151533848760447313870000005071035907692396933_" gradientUnits="userSpaceOnUse" x1="383.3774" y1="166.3959" x2="523.7003" y2="51.6437">
				<stop  offset="0" style="stop-color:#067BC0"/>
				<stop  offset="1" style="stop-color:#61CAE4"/>
			</linearGradient>
			<path style="fill:url(#SVGID_00000151533848760447313870000005071035907692396933_);" d="M523.8,52.9
				c-15.1-13.8-36.7-20.7-64.9-20.7H403v158.2h54.1c30.2,0,52.6-7.2,67.3-21.5c14.7-14.3,22.1-33.8,22.1-58.4
				C546.5,85.9,538.9,66.7,523.8,52.9z M497.9,146.9c-8.7,8.1-21.1,12.2-37.2,12.2h-22.4V63H458c18,0,31.3,4.2,39.9,12.6
				c8.7,8.4,13,20.3,13,35.9C510.9,127,506.6,138.8,497.9,146.9z"/>
			
				<linearGradient id="SVGID_00000162341842695971626730000004871355572489725337_" gradientUnits="userSpaceOnUse" x1="602.8757" y1="151.282" x2="729.4371" y2="43.5127">
				<stop  offset="0" style="stop-color:#067BC0"/>
				<stop  offset="1" style="stop-color:#61CAE4"/>
			</linearGradient>
			<path style="fill:url(#SVGID_00000162341842695971626730000004871355572489725337_);" d="M651,28.6c-23.4,0-43.1,7.8-59.1,23.4
				c-16,15.6-24,35-24,58.3c0,23.2,8,42.7,24,58.3c16,15.6,35.7,23.4,59.1,23.4c23.4,0,43.1-7.8,59.1-23.4c16-15.6,24-35,24-58.3
				c0-23.2-8-42.7-24-58.3C694.1,36.4,674.4,28.6,651,28.6z M684.5,146.4c-9.1,9.9-20.2,14.8-33.4,14.8c-13.2,0-24.3-4.9-33.4-14.8
				c-9.1-9.9-13.6-21.9-13.6-36c0-14.1,4.5-26.1,13.6-36.1c9.1-10,20.2-14.9,33.4-14.9c13.2,0,24.3,5,33.4,14.9
				c9.1,10,13.6,22,13.6,36.1C698.1,124.5,693.6,136.5,684.5,146.4z"/>
			
				<linearGradient id="SVGID_00000109721021049359011210000005693128341908265636_" gradientUnits="userSpaceOnUse" x1="793.0125" y1="145.53" x2="898.7253" y2="55.7142">
				<stop  offset="0" style="stop-color:#067BC0"/>
				<stop  offset="1" style="stop-color:#61CAE4"/>
			</linearGradient>
			<path style="fill:url(#SVGID_00000109721021049359011210000005693128341908265636_);" d="M859,32.2l-59.7,64.9V32.2h-35.3v158.2
				h35.3v-44.8l15.8-17.7l46.4,62.5h41.2c-7.2-10.1-18.2-25.5-32.8-46c-14.6-20.6-24.7-34.7-30.1-42.2l62.9-69.9H859z"/>
			
				<linearGradient id="SVGID_00000147222080661920514480000010295138940124736181_" gradientUnits="userSpaceOnUse" x1="937.2533" y1="150.1382" x2="1070.189" y2="50.5555">
				<stop  offset="0" style="stop-color:#067BC0"/>
				<stop  offset="1" style="stop-color:#61CAE4"/>
			</linearGradient>
			<path style="fill:url(#SVGID_00000147222080661920514480000010295138940124736181_);" d="M1049.5,52
				c-16-15.6-35.7-23.4-59.1-23.4c-23.4,0-43.1,7.8-59.1,23.4c-16,15.6-24,35-24,58.3c0,23.2,8,42.7,24,58.3
				c16,15.6,35.7,23.4,59.1,23.4c23.4,0,43.1-7.8,59.1-23.4c16-15.6,24-35,24-58.3C1073.5,87.1,1065.5,67.6,1049.5,52z
				 M1023.9,146.4c-9.1,9.9-20.2,14.8-33.4,14.8c-13.2,0-24.3-4.9-33.4-14.8c-9.1-9.9-13.6-21.9-13.6-36c0-14.1,4.5-26.1,13.6-36.1
				c9.1-10,20.2-14.9,33.4-14.9c13.2,0,24.3,5,33.4,14.9c9.1,10,13.6,22,13.6,36.1C1037.5,124.5,1033,136.5,1023.9,146.4z"/>
		</g>
		<g>
			
				<linearGradient id="SVGID_00000149378892897974476630000014026538690469560490_" gradientUnits="userSpaceOnUse" x1="476.7105" y1="291.7126" x2="530.2913" y2="245.347">
				<stop  offset="0" style="stop-color:#067BC0"/>
				<stop  offset="1" style="stop-color:#61CAE4"/>
			</linearGradient>
			<path style="fill:url(#SVGID_00000149378892897974476630000014026538690469560490_);" d="M523.6,269.8c-3.5-3-8.7-5.3-15.6-7
				c-6.9-1.7-11.4-3.2-13.5-4.7c-2.1-1.4-3.2-3.5-3.2-6.2c0-2.7,1.1-4.8,3.2-6.1c2.1-1.3,4.8-2,8.1-2c3.3,0,6.6,0.6,10,1.7
				c3.4,1.2,6.1,2.6,8.1,4.4l6-8.5c-3.1-2.6-6.7-4.5-10.9-6c-4.2-1.4-8.5-2.1-12.8-2.1c-6.7,0-12.2,1.7-16.8,5
				c-4.5,3.4-6.8,8.1-6.8,14.4c0,6.2,2,10.8,6,13.8c2,1.6,4.3,2.9,6.8,3.9c2.6,1,6.3,2.1,11.2,3.3c4.9,1.2,8.4,2.5,10.4,3.9
				c2,1.4,3,3.5,3,6c0,2.6-1.1,4.7-3.2,6.2c-2.1,1.6-5,2.4-8.7,2.4c-7.3,0-14.3-2.9-21.1-8.8l-7.1,8.5c8.1,7.2,17.4,10.8,27.9,10.8
				c7.2,0,13-1.8,17.4-5.5c4.4-3.6,6.6-8.4,6.6-14.3C528.9,277.2,527.1,272.8,523.6,269.8z"/>
			
				<linearGradient id="SVGID_00000082332727926594903420000006190925459100835997_" gradientUnits="userSpaceOnUse" x1="573.5485" y1="276.2467" x2="613.9789" y2="243.4927">
				<stop  offset="0" style="stop-color:#067BC0"/>
				<stop  offset="1" style="stop-color:#61CAE4"/>
			</linearGradient>
			<polygon style="fill:url(#SVGID_00000082332727926594903420000006190925459100835997_);" points="567.3,245.3 587.6,245.3 
				587.6,302.1 599,302.1 599,245.3 619.3,245.3 619.3,234.9 567.3,234.9 			"/>
			
				<linearGradient id="SVGID_00000125563746868998189190000013504190677273963410_" gradientUnits="userSpaceOnUse" x1="670.4102" y1="278.8229" x2="712.7131" y2="240.8692">
				<stop  offset="0" style="stop-color:#067BC0"/>
				<stop  offset="1" style="stop-color:#61CAE4"/>
			</linearGradient>
			<path style="fill:url(#SVGID_00000125563746868998189190000013504190677273963410_);" d="M707,272.1c0,6.1-1.5,11-4.6,14.6
				c-3.1,3.6-7.2,5.4-12.5,5.4c-5.2,0-9.4-1.8-12.5-5.4c-3.1-3.6-4.6-8.4-4.6-14.6v-37.2h-11.3v37.6c0,9.7,2.7,17.1,8,22.3
				c5.3,5.2,12.1,7.8,20.4,7.8c8.3,0,15.1-2.6,20.4-7.8c5.3-5.2,8-12.7,8-22.3v-37.6H707V272.1z"/>
			
				<linearGradient id="SVGID_00000013881695179117572080000004976296072160674990_" gradientUnits="userSpaceOnUse" x1="774.1768" y1="278.0726" x2="821.9962" y2="241.0422">
				<stop  offset="0" style="stop-color:#067BC0"/>
				<stop  offset="1" style="stop-color:#61CAE4"/>
			</linearGradient>
			<path style="fill:url(#SVGID_00000013881695179117572080000004976296072160674990_);" d="M789.8,234.9h-23v67.1H789
				c12.9,0,22.5-3,28.8-9.1c6.3-6.1,9.4-14.3,9.4-24.8c0-10.4-3.2-18.6-9.7-24.4C811.1,237.9,801.8,234.9,789.8,234.9z M809.3,285.6
				c-4.3,3.9-10.5,5.8-18.7,5.8h-12.6v-46h11.3c17.6,0,26.4,7.7,26.4,23C815.8,276,813.7,281.7,809.3,285.6z"/>
			
				<linearGradient id="SVGID_00000079465154071330242300000014154163732438690190_" gradientUnits="userSpaceOnUse" x1="874.9148" y1="271.2909" x2="883.5697" y2="263.9823">
				<stop  offset="0" style="stop-color:#067BC0"/>
				<stop  offset="1" style="stop-color:#61CAE4"/>
			</linearGradient>
			
				<rect x="872.6" y="234.9" style="fill:url(#SVGID_00000079465154071330242300000014154163732438690190_);" width="11.3" height="67.1"/>
			
				<linearGradient id="SVGID_00000060727996694440732170000004182768697388075939_" gradientUnits="userSpaceOnUse" x1="943.1465" y1="285.3474" x2="997.743" y2="240.4939">
				<stop  offset="0" style="stop-color:#067BC0"/>
				<stop  offset="1" style="stop-color:#61CAE4"/>
			</linearGradient>
			<path style="fill:url(#SVGID_00000060727996694440732170000004182768697388075939_);" d="M989.4,243.3
				c-6.8-6.6-15.2-9.9-25.2-9.9c-10,0-18.4,3.3-25.2,9.9c-6.8,6.6-10.2,14.9-10.2,24.8s3.4,18.1,10.2,24.8
				c6.8,6.6,15.2,9.9,25.2,9.9c10,0,18.4-3.3,25.2-9.9c6.8-6.6,10.2-14.9,10.2-24.8S996.2,249.9,989.4,243.3z M981.1,285.3
				c-4.6,4.7-10.2,7.1-16.8,7.1c-6.7,0-12.3-2.4-16.8-7.1c-4.6-4.7-6.9-10.5-6.9-17.2c0-6.8,2.3-12.5,6.9-17.2
				c4.6-4.7,10.2-7.1,16.8-7.1c6.7,0,12.3,2.4,16.8,7.1c4.6,4.7,6.9,10.5,6.9,17.2C988,274.8,985.7,280.5,981.1,285.3z"/>
		</g>
	</g>
</g>
</svg>
