<svg width="41" height="40" viewBox="0 0 41 40" fill="none" xmlns="http://www.w3.org/2000/svg">
<g clip-path="url(#clip0_1_367)">
<path d="M16.4088 20.9336V15.9089H11.3841C11.3841 14.6145 10.3348 13.5652 9.04039 13.5652C7.74594 13.5652 6.69664 14.6145 6.69664 15.9089H1.67188V30.6459H16.4088V25.6212C15.1144 25.6212 14.0651 24.5719 14.0651 23.2774C14.0651 21.983 15.1144 20.9336 16.4088 20.9336Z" stroke="#067bc0" stroke-width="2.8125" stroke-miterlimit="10"/>
<path d="M11.3841 15.9088H16.4088V10.8841C17.7032 10.8841 18.7525 9.83484 18.7525 8.54039C18.7525 7.24594 17.7032 6.19664 16.4088 6.19664V1.17188H1.67188V15.9088H6.69656C6.69656 14.6144 7.74586 13.5651 9.04031 13.5651C10.3348 13.5651 11.3841 14.6144 11.3841 15.9088Z" stroke="#067bc0" stroke-width="2.8125" stroke-miterlimit="10"/>
<path d="M16.4087 10.8841V15.9088H21.4334C21.4334 17.2032 22.4827 18.2525 23.7771 18.2525C25.0716 18.2525 26.1209 17.2032 26.1209 15.9088H31.1456V1.17188H16.4087V6.19656C17.7031 6.19656 18.7524 7.24586 18.7524 8.54031C18.7524 9.83477 17.7031 10.8841 16.4087 10.8841Z" stroke="#067bc0" stroke-width="2.8125" stroke-miterlimit="10"/>
<path d="M29.616 24.0911H24.5913V29.1158C23.2969 29.1158 22.2476 30.1651 22.2476 31.4595C22.2476 32.754 23.2969 33.8033 24.5913 33.8033V38.828H39.3282V24.0911H34.3035C34.3035 25.3855 33.2542 26.4348 31.9597 26.4348C30.6653 26.4348 29.616 25.3855 29.616 24.0911Z" stroke="#067bc0" stroke-width="2.8125" stroke-miterlimit="10"/>
</g>
<defs>
<clipPath id="clip0_1_367">
<rect width="40" height="40" fill="white" transform="translate(0.5)"/>
</clipPath>
</defs>
</svg>
